<?xml version="1.0" encoding="UTF-8" standalone="no"?>
<svg
   xmlns:dc="http://purl.org/dc/elements/1.1/"
   xmlns:cc="http://creativecommons.org/ns#"
   xmlns:rdf="http://www.w3.org/1999/02/22-rdf-syntax-ns#"
   xmlns:svg="http://www.w3.org/2000/svg"
   xmlns="http://www.w3.org/2000/svg"
   xmlns:xlink="http://www.w3.org/1999/xlink"
   xmlns:sodipodi="http://sodipodi.sourceforge.net/DTD/sodipodi-0.dtd"
   xmlns:inkscape="http://www.inkscape.org/namespaces/inkscape"
   version="1.1"
   id="svg4152"
   viewBox="0 0 187.81982 192.09047"
   height="54.2122mm"
   width="53.006927mm"
   inkscape:version="0.91 r13725"
   sodipodi:docname="emerald.svg">
  <sodipodi:namedview
     pagecolor="#ffffff"
     bordercolor="#666666"
     borderopacity="1"
     objecttolerance="10"
     gridtolerance="10"
     guidetolerance="10"
     inkscape:pageopacity="0"
     inkscape:pageshadow="2"
     inkscape:window-width="1440"
     inkscape:window-height="855"
     id="namedview27"
     showgrid="false"
     showborder="false"
     inkscape:zoom="1.2285877"
     inkscape:cx="-24.925721"
     inkscape:cy="96.045237"
     inkscape:window-x="0"
     inkscape:window-y="1"
     inkscape:window-maximized="1"
     inkscape:current-layer="svg4152" />
  <defs
     id="defs4154">
    <linearGradient
       id="linearGradient4938">
      <stop
         style="stop-color:#469646;stop-opacity:1"
         offset="0"
         id="stop4940" />
      <stop
         style="stop-color:#16592e;stop-opacity:1"
         offset="1"
         id="stop4942" />
    </linearGradient>
    <linearGradient
       id="linearGradient4886">
      <stop
         id="stop4888"
         offset="0"
         style="stop-color:#7ec349;stop-opacity:1" />
      <stop
         id="stop4890"
         offset="1"
         style="stop-color:#469447;stop-opacity:1" />
    </linearGradient>
    <linearGradient
       gradientUnits="userSpaceOnUse"
       y2="354.38733"
       x2="-136.21141"
       y1="312.7038"
       x1="-154.04019"
       id="linearGradient4862"
       xlink:href="#linearGradient4886" />
    <linearGradient
       gradientUnits="userSpaceOnUse"
       y2="360.66559"
       x2="-201.44739"
       y1="319.29547"
       x1="-202.49049"
       id="linearGradient4870"
       xlink:href="#linearGradient4886" />
    <linearGradient
       gradientUnits="userSpaceOnUse"
       y2="351.83096"
       x2="-272.70734"
       y1="311.40106"
       x1="-250.64934"
       id="linearGradient4878"
       xlink:href="#linearGradient4886" />
    <linearGradient
       gradientUnits="userSpaceOnUse"
       y2="491.17365"
       x2="-202.02512"
       y1="339.14621"
       x1="-294.12292"
       id="linearGradient4898"
       xlink:href="#linearGradient4938" />
    <linearGradient
       gradientUnits="userSpaceOnUse"
       y2="472.41229"
       x2="-199.99452"
       y1="366.03741"
       x1="-200.83064"
       id="linearGradient4906"
       xlink:href="#linearGradient4938" />
    <linearGradient
       gradientUnits="userSpaceOnUse"
       y2="489.84396"
       x2="-198.49464"
       y1="340.03265"
       x1="-106.65253"
       id="linearGradient4914"
       xlink:href="#linearGradient4938" />
  </defs>
  <metadata
     id="metadata4157">
    <rdf:RDF>
      <cc:Work
         rdf:about="">
        <dc:format>image/svg+xml</dc:format>
        <dc:type
           rdf:resource="http://purl.org/dc/dcmitype/StillImage" />
        <dc:title></dc:title>
      </cc:Work>
    </rdf:RDF>
  </metadata>
  <g
     transform="translate(294.12291,-298.65562)"
     id="layer1">
    <path
       id="path4787"
       d="m -292.16299,350.69151 0.25,0.0351 c -0.003,-0.0119 -0.008,-0.0233 -0.0117,-0.0351 l -0.23828,0 z"
       style="fill:#000000;fill-opacity:1;fill-rule:evenodd;stroke:#000000;stroke-width:1px;stroke-linecap:butt;stroke-linejoin:miter;stroke-opacity:1" />
    <g
       id="g4944">
      <path
         style="opacity:1;fill:#7ec349;fill-opacity:1;stroke:#78e3ff;stroke-width:0.20374891;stroke-linecap:round;stroke-linejoin:round;stroke-miterlimit:4;stroke-dasharray:0.61124673, 0.61124673;stroke-dashoffset:0;stroke-opacity:0"
         d="m -244.67096,298.75754 -11.97851,6.81641 0.0527,0.0644 19.80469,10.07031 60.58789,0.67188 7.21679,0.16797 2.51563,0 2.51758,-0.16797 18.41992,-10.88477 -11.84375,-6.73828 -87.29297,0 z"
         id="path4852" />
      <path
         style="opacity:1;fill:url(#linearGradient4862);fill-opacity:1;stroke:#78e3ff;stroke-width:0.20374891;stroke-linecap:round;stroke-linejoin:round;stroke-miterlimit:4;stroke-dasharray:0.61124673, 0.61124673;stroke-dashoffset:0;stroke-opacity:0"
         d="m -143.54297,306.63086 -18.85742,11.54883 1.15234,4.64062 46.82813,0.38086 -29.12305,-16.57031 z m -17.70508,16.19336 9.73047,39.20117 1.22266,0.002 35.51758,-14.76172 c 3.50964,-8.01958 3.30082,-16.039 0.3457,-24.05859 l -46.81641,-0.38281 z"
         id="path4850" />
      <path
         style="opacity:1;fill:url(#linearGradient4878);fill-opacity:1;stroke:#78e3ff;stroke-width:0.20374891;stroke-linecap:round;stroke-linejoin:round;stroke-miterlimit:4;stroke-dasharray:0.61124673, 0.61124673;stroke-dashoffset:0;stroke-opacity:0"
         d="m -259.08307,306.95871 -26.10742,14.85352 -0.0664,0 c -3.65262,7.51734 -2.4287,16.43757 0.34571,25.80273 l 35.38281,13.98633 9.7832,-39.41797 1.09766,-4.42383 -20.43555,-10.80078 z"
         id="path4848" />
      <path
         style="opacity:1;fill:url(#linearGradient4870);fill-opacity:1;stroke:#78e3ff;stroke-width:0.20374891;stroke-linecap:round;stroke-linejoin:round;stroke-miterlimit:4;stroke-dasharray:0.61124673, 0.61124673;stroke-dashoffset:0;stroke-opacity:0"
         d="m -236.92383,318.56445 -0.9414,3.63282 74.73242,0.60742 -0.9336,-3.60547 -0.0547,0.0332 -72.80274,-0.66797 z m -0.9414,3.63477 -10.28125,39.66406 95.17578,0.16016 -10.16016,-39.21485 -74.73437,-0.60937 z"
         id="path4846" />
      <path
         style="fill:url(#linearGradient4898);fill-opacity:1;fill-rule:evenodd;stroke:#000000;stroke-width:0;stroke-linecap:butt;stroke-linejoin:miter;stroke-miterlimit:4;stroke-dasharray:none;stroke-opacity:1"
         d="m -293.30255,338.24412 0,30.66406 c 0.007,0.029 0.016,0.057 0.0234,0.0859 l -0.57031,-0.0859 -0.27344,24.91602 c 0.38068,24.56254 19.59299,34.4911 33.94922,44.35351 -21.00712,-20.9576 -24.62512,-40.16998 -26.83985,-49.91016 19.07075,48.26959 55.73548,70.14705 85.43164,102.47852 l 0,-15.33203 -12.04687,-26.5586 -12.04688,-28.4746 c -3.38434,-8.14651 -10.05901,-13.55173 -17.79687,-18.07032 0.96236,-1.00484 -17.28243,-5.78769 -34.04883,-30.83593 l 0.0996,-0.10157 -0.18945,-0.0293 c -5.6704,-8.49854 -11.16943,-19.31397 -15.69141,-33.09961 z m 9.53125,12.13476 c 2.29814,16.67309 23.65119,39.35169 40.48242,47.0293 l 14.15039,12.96289 -18.25195,-45.07031 -0.78906,-0.004 -34.17969,-14.7168 -1.41211,-0.20117 z"
         id="path4785" />
      <path
         id="path4802"
         d="m -107.12344,338.24412 0,30.66406 c -0.007,0.029 -0.016,0.057 -0.0234,0.0859 l 0.57031,-0.0859 0.27344,24.91602 c -0.38068,24.56254 -19.59299,34.4911 -33.94922,44.35351 21.00712,-20.9576 24.62512,-40.16998 26.83985,-49.91016 -19.07075,48.26959 -55.73548,70.14705 -85.43164,102.47852 l 0,-15.33203 12.04687,-26.5586 12.04688,-28.4746 c 3.38434,-8.14651 10.05901,-13.55173 17.79687,-18.07032 -0.96236,-1.00484 17.28243,-5.78769 34.04883,-30.83593 l -0.0996,-0.10157 0.18945,-0.0293 c 5.6704,-8.49854 11.16943,-19.31397 15.69141,-33.09961 z m -9.53125,12.13476 c -2.29814,16.67309 -23.65119,39.35169 -40.48242,47.0293 l -14.15039,12.96289 18.25195,-45.07031 0.78906,-0.004 34.17969,-14.7168 1.41211,-0.20117 z"
         style="fill:url(#linearGradient4914);fill-opacity:1;fill-rule:evenodd;stroke:#000000;stroke-width:0;stroke-linecap:butt;stroke-linejoin:miter;stroke-miterlimit:4;stroke-dasharray:none;stroke-opacity:1" />
      <path
         style="fill:url(#linearGradient4906);fill-opacity:1;fill-rule:evenodd;stroke:#469446;stroke-width:0;stroke-linecap:butt;stroke-linejoin:miter;stroke-miterlimit:4;stroke-dasharray:none;stroke-opacity:1"
         d="m -244.71027,365.46453 44.38489,107.75797 45.09694,-107.99532 z"
         id="path4813" />
    </g>
  </g>
</svg>
